<?xml version="1.0" standalone="no"?>
<!DOCTYPE svg PUBLIC "-//W3C//DTD SVG 20010904//EN"
 "http://www.w3.org/TR/2001/REC-SVG-20010904/DTD/svg10.dtd">
<svg version="1.0" xmlns="http://www.w3.org/2000/svg"
 width="512.000000pt" height="512.000000pt" viewBox="0 0 512.000000 512.000000"
 preserveAspectRatio="xMidYMid meet">
<metadata>
Created by potrace 1.11, written by Peter Selinger 2001-2013
</metadata>
<g transform="translate(0.000000,512.000000) scale(0.100000,-0.100000)"
fill="#000000" stroke="none">
<path d="M2405 4934 c-81 -11 -208 -36 -270 -55 -39 -11 -74 -22 -80 -23 -5
-2 -23 -8 -38 -14 -16 -7 -30 -12 -33 -12 -3 0 -46 -20 -96 -45 -296 -146
-549 -396 -693 -684 -70 -138 -122 -294 -140 -412 -2 -19 -9 -61 -14 -94 -12
-79 -11 -298 1 -366 41 -230 82 -371 173 -585 59 -136 241 -502 315 -629 9
-16 43 -79 75 -140 32 -60 75 -141 95 -180 73 -137 317 -617 537 -1056 123
-245 235 -457 249 -470 36 -34 104 -34 138 1 13 14 129 232 256 485 227 449
390 769 475 930 119 226 166 315 255 480 285 528 392 790 446 1080 30 164 26
403 -9 585 -40 207 -154 450 -295 630 -105 133 -311 309 -463 392 -126 70
-312 135 -479 168 -62 12 -343 21 -405 14z m330 -577 c137 -34 188 -52 279
-98 258 -131 440 -360 516 -648 20 -75 25 -132 24 -261 -1 -187 -43 -337 -139
-498 -37 -61 -150 -202 -163 -202 -4 0 -9 15 -10 33 -3 41 -22 213 -28 240 -2
12 -6 38 -9 57 -32 215 -152 393 -372 552 -61 44 -73 57 -73 81 0 15 -5 37
-11 49 -6 11 -9 22 -7 24 3 2 35 -16 73 -41 37 -25 73 -45 79 -45 7 0 17 -5
24 -12 9 -9 12 -9 12 3 0 21 -35 69 -78 109 -55 49 -72 80 -66 115 3 16 7 32
9 35 2 4 7 34 11 67 l6 61 -73 36 c-41 20 -92 38 -115 40 -53 6 -113 22 -166
46 -70 32 -92 27 -117 -25 -12 -25 -21 -48 -21 -51 0 -3 -7 -30 -16 -60 -12
-41 -20 -54 -35 -54 -12 0 -19 -7 -19 -20 0 -20 -5 -22 -122 -51 -26 -6 -53
-18 -59 -26 -11 -12 2 -13 94 -9 104 5 106 4 94 -15 -9 -14 -9 -24 -1 -37 9
-13 6 -27 -13 -66 -23 -46 -24 -51 -8 -62 12 -9 18 -32 21 -81 4 -58 8 -71 29
-86 14 -10 25 -23 25 -28 0 -5 -21 -45 -46 -89 -59 -101 -56 -114 27 -107 l60
6 -6 -62 c-3 -34 -8 -73 -10 -87 -2 -14 -6 -54 -9 -90 -4 -36 -9 -89 -11 -118
-4 -39 -1 -62 14 -90 11 -21 22 -58 26 -83 11 -77 13 -93 20 -136 l7 -43 -34
0 c-19 0 -39 5 -44 10 -12 12 -130 -10 -187 -33 -38 -16 -44 -14 -121 37 -189
127 -340 342 -403 572 -22 83 -26 121 -27 234 -1 74 2 155 6 180 31 186 129
386 257 523 146 156 372 276 574 303 23 4 44 8 46 10 5 4 263 -3 286 -9z"/>
</g>
</svg>
