<?xml version="1.0" standalone="no"?>
<!DOCTYPE svg PUBLIC "-//W3C//DTD SVG 20010904//EN"
 "http://www.w3.org/TR/2001/REC-SVG-20010904/DTD/svg10.dtd">
<svg version="1.0" xmlns="http://www.w3.org/2000/svg"
 width="512.000000pt" height="512.000000pt" viewBox="0 0 512.000000 512.000000"
 preserveAspectRatio="xMidYMid meet">
<metadata>
Created by potrace 1.11, written by Peter Selinger 2001-2013
</metadata>
<g transform="translate(0.000000,512.000000) scale(0.100000,-0.100000)"
fill="#000000" stroke="none">
<path d="M2375 4960 c-86 -13 -123 -19 -172 -31 -62 -14 -65 -15 -83 -21 -8
-3 -51 -18 -95 -33 -126 -43 -330 -154 -425 -231 -313 -259 -496 -557 -571
-932 -27 -135 -33 -367 -13 -502 22 -156 24 -164 35 -192 6 -15 9 -34 6 -41
-3 -7 1 -21 9 -32 8 -10 14 -24 14 -31 0 -7 5 -25 12 -41 6 -15 12 -30 13 -33
0 -3 9 -30 20 -60 11 -30 18 -58 17 -62 -1 -5 2 -8 7 -8 4 0 16 -21 26 -47 21
-56 203 -428 273 -558 212 -393 402 -761 753 -1462 128 -254 242 -472 253
-485 49 -56 143 -60 194 -9 15 14 69 109 120 211 51 102 105 210 121 240 15
30 34 69 42 85 8 17 17 32 20 35 3 3 13 25 23 50 10 25 21 47 25 50 3 3 17 30
31 60 14 30 27 57 30 60 8 8 50 100 47 104 -1 2 5 12 14 22 8 11 44 78 79 149
36 72 67 132 70 135 3 3 27 50 55 105 27 55 59 116 72 136 12 20 20 39 17 41
-2 3 2 11 11 18 8 7 15 21 15 30 0 10 3 20 8 22 4 2 24 37 46 78 21 41 99 190
174 330 117 220 196 380 259 520 8 19 21 48 29 64 8 16 14 35 14 42 0 7 5 14
10 16 6 2 12 12 14 24 2 11 11 36 19 56 9 20 13 39 9 42 -3 3 0 6 5 6 6 0 10
8 9 18 -2 9 3 27 11 39 8 12 12 27 9 32 -4 5 -1 13 5 16 5 4 8 13 5 21 -3 8
-1 14 4 14 5 0 7 9 5 20 -2 11 0 22 5 25 5 3 7 12 4 20 -3 8 -2 20 2 27 4 6
10 26 12 43 7 41 6 464 0 495 -3 14 -8 39 -12 55 -3 17 -8 41 -12 55 -3 14 -9
41 -14 60 -4 19 -12 47 -18 63 -7 15 -9 27 -7 27 3 0 -2 11 -11 25 -9 14 -13
25 -9 25 4 0 0 11 -9 25 -9 14 -14 25 -11 25 3 0 0 10 -7 23 -7 12 -13 24 -13
27 -2 10 -49 105 -54 110 -4 3 -13 19 -21 35 -8 17 -19 33 -25 37 -5 4 -10 11
-10 15 0 8 -77 113 -105 144 -113 123 -197 202 -305 284 -148 114 -431 229
-650 263 -123 20 -336 26 -430 12z"/>
</g>
</svg>
